<?xml version="1.0" encoding="utf-8"?>
<!-- Generator: Adobe Illustrator 16.0.0, SVG Export Plug-In . SVG Version: 6.00 Build 0)  -->
<!DOCTYPE svg PUBLIC "-//W3C//DTD SVG 1.1//EN" "http://www.w3.org/Graphics/SVG/1.1/DTD/svg11.dtd">
<svg version="1.1" xmlns="http://www.w3.org/2000/svg" xmlns:xlink="http://www.w3.org/1999/xlink" x="0px" y="0px" width="1000px"
	 height="984px" viewBox="0 0 1000 984" enable-background="new 0 0 1000 984" xml:space="preserve">
<g id="Layer_1">
	<g id="layer103">
		<path fill="#231F20" d="M890.728,280.806l9.499-2.526c5.172-1.443,10.102-3.367,10.702-4.449
			c0.963-1.443-1.322-11.905-8.297-39.683l-9.499-37.758l-4.208-0.241c-5.292-0.361-747.114,184.944-746.874,186.628
			c0.12,0.721,13.228,9.379,29.341,19.24l29.101,18.156l2.766,11.185c2.646,10.46,2.766,16.955,0.361,16.955
			c-0.481,0-2.044-4.69-3.247-10.462c-1.324-5.771-3.127-11.424-4.089-12.505c-0.961-1.203-36.075-23.57-77.921-49.784
			c-61.689-38.48-76.96-47.499-80.328-47.499c-2.285,0-9.86,1.324-16.955,3.007c-6.975,1.683-13.107,2.766-13.468,2.284
			c-1.924-1.924,5.772-5.17,19.361-8.177l14.79-3.367l40.043,24.771l40.043,24.771l41.125-16.113
			c22.608-8.898,76.6-30.063,119.89-47.018c43.29-16.956,87.663-34.392,98.604-38.721c10.943-4.329,67.46-26.455,125.662-49.303
			c58.202-22.848,136.122-53.391,173.16-67.941c37.037-14.55,90.908-35.593,119.649-46.897
			c28.739-11.184,53.271-21.405,54.594-22.607c2.163-2.044,1.804-3.127-12.025-38.48c-8.539-21.766-14.912-36.676-16.234-37.277
			c-1.442-0.842-8.898,1.563-27.658,8.898c-14.189,5.532-61.206,24.05-104.496,41.006c-43.291,16.955-93.675,36.796-111.832,43.891
			c-52.068,20.442-209.235,82.13-298.221,117.003c-44.613,17.556-122.535,48.1-173.16,67.941
			c-50.625,19.842-95.599,37.518-100.048,39.322l-7.936,3.127l1.563,3.847c1.083,2.525,1.203,4.69,0.36,6.975
			c-0.841,2.645,2.286,16.835,17.076,75.156c10.341,40.645,18.999,72.992,20.082,74.194c1.082,1.083,3.607,2.044,5.892,2.044"/>
		<path fill="#04709B" d="M47.52,489.938c2.645,0,4.088,0.601,4.57,2.164c0.361,1.082,25.252,100.77,55.315,221.502
			c30.062,120.73,55.795,222.101,57.118,225.227c1.443,3.247,5.532,8.899,9.14,12.748c10.221,10.822,23.448,16.112,37.277,15.151
			c3.968-0.241,175.564-42.449,381.192-93.796c279.822-69.745,375.78-94.155,381.312-96.801
			c14.672-7.216,25.134-22.849,26.456-39.683c0.722-8.898-0.12-12.267-53.992-227.873
			c-30.184-120.372-54.954-221.021-55.194-223.546l-0.361-4.689"/>
		<g>
			<path fill="#FFFFFF" d="M222.138,882.415c-1.443-0.479-3.127-1.682-3.968-2.764c-0.842-0.963-8.298-28.981-16.595-62.29
				c-15.513-62.41-16.114-65.897-11.544-69.986c3.127-2.886,122.536-32.467,127.225-31.505c2.044,0.36,4.69,1.684,5.772,2.887
				c2.886,3.126,32.347,122.293,31.385,127.103c-0.361,2.045-1.563,4.691-2.766,5.651c-2.044,1.926-120.491,32.228-125.06,31.988
				C225.504,883.499,223.46,883.017,222.138,882.415z M271.801,851.511c3.367-7.574,10.461-22.365,27.296-57.479
				c3.849-7.936,8.9-18.758,11.424-24.05c2.525-5.291,6.494-13.829,8.898-18.88s4.329-9.739,4.329-10.222
				c0-0.96-12.265-7.574-13.828-7.574c-0.482,0-7.456,14.188-22.247,45.694c-16.593,35.233-27.537,57.721-28.258,57.721
				c-0.36,0-8.778-4.09-18.639-9.019c-9.861-4.93-18.398-9.02-19-9.02c-0.601,0-2.646,3.247-4.69,7.335l-3.727,7.215l26.093,13.107
				c14.31,7.216,26.576,13.108,27.297,13.108C267.472,859.569,269.756,855.961,271.801,851.511z"/>
			<path fill="#FFFFFF" d="M388.442,804.854c-11.783-3.247-18.278-9.979-21.163-22.246c-2.404-10.101,2.766-23.329,11.424-29.221
				c3.607-2.404,40.404-11.905,179.533-46.537c96.2-23.93,211.641-52.669,256.493-63.852c77.922-19.481,81.77-20.322,87.181-19.001
				c12.747,3.127,19.241,9.381,22.606,21.766c2.767,10.702-2.163,24.051-11.183,30.063c-3.728,2.524-53.03,15.151-259.499,66.498
				c-140.211,34.872-256.013,63.612-257.335,63.731C395.178,806.299,391.57,805.817,388.442,804.854z"/>
			<path fill="#FFFFFF" d="M174.038,690.017c-1.443-0.481-3.127-1.684-3.968-2.766c-0.842-0.962-8.298-28.981-16.595-62.289
				c-15.512-62.41-16.113-65.898-11.544-69.986c3.127-2.887,122.536-32.468,127.225-31.505c2.044,0.36,4.69,1.683,5.773,2.886
				c2.886,3.126,32.346,122.293,31.385,127.104c-0.36,2.044-1.563,4.69-2.766,5.652c-2.044,1.925-120.491,32.228-125.06,31.986
				C177.404,691.099,175.36,690.617,174.038,690.017z M223.7,659.112c3.368-7.575,10.462-22.367,27.297-57.479
				c3.848-7.937,8.899-18.759,11.424-24.051c2.524-5.291,6.494-13.827,8.898-18.879c2.405-5.05,4.329-9.74,4.329-10.222
				c0-0.961-12.266-7.575-13.829-7.575c-0.481,0-7.456,14.189-22.246,45.695c-16.594,35.233-27.537,57.72-28.259,57.72
				c-0.36,0-8.778-4.089-18.639-9.019s-18.398-9.019-18.999-9.019s-2.646,3.246-4.69,7.334l-3.728,7.216l26.094,13.107
				c14.309,7.216,26.575,13.107,27.296,13.107C219.372,667.169,221.657,663.562,223.7,659.112z"/>
			<path fill="#FFFFFF" d="M340.343,612.455c-11.784-3.246-18.278-9.98-21.163-22.247c-2.405-10.101,2.766-23.328,11.423-29.22
				c3.608-2.405,40.404-11.906,179.534-46.537c96.199-23.93,211.64-52.669,256.492-63.852
				c77.922-19.481,81.771-20.323,87.183-19.001c12.746,3.127,19.238,9.381,22.606,21.766c2.767,10.702-2.166,24.05-11.184,30.063
				c-3.728,2.525-53.029,15.151-259.5,66.499c-140.21,34.871-256.012,63.611-257.334,63.732
				C347.078,613.898,343.47,613.417,340.343,612.455z"/>
			<path fill="#FFFFFF" d="M64.489,495.813c-1.442,0.24-2.885,0.24-3.367-0.24c-4.208-4.209-13.949-1.684,409.691-107.263
				c225.591-56.277,410.896-102.333,411.616-102.333c0.842,0,1.685,1.082,2.044,2.405c0.481,1.924-0.24,2.646-3.727,3.487
				C875.455,293.312,68.218,494.971,64.489,495.813"/>
			<path fill="#FFFFFF" d="M56.794,461.541c0-0.602,0.601-1.203,1.202-1.203c0.722,0,1.203,0.601,1.203,1.203
				c0,0.722-0.481,1.203-1.203,1.203C57.395,462.744,56.794,462.263,56.794,461.541z"/>
			<path fill="#FFFFFF" d="M56.192,456.731c-1.082-1.804,1.443-5.772,4.329-6.614c3.729-1.203,3.968,0,0.963,4.089
				C58.597,458.175,57.395,458.655,56.192,456.731z"/>
			<path fill="#FFFFFF" d="M227.549,438.212c0-1.441,32.828-78.402,33.669-78.883c2.045-1.323,72.27-18.279,72.871-17.678
				c0.602,0.602-31.867,79.005-32.587,79.005c-0.241,0-16.595,4.089-36.557,9.019C227.428,439.054,227.549,439.054,227.549,438.212z
				"/>
			<path fill="#FFFFFF" d="M158.405,436.409c-0.722-1.322,1.082-2.766,2.284-1.683c1.082,1.082,0.842,2.766-0.36,2.766
				C159.607,437.491,158.886,437.01,158.405,436.409z"/>
			<path fill="#FFFFFF" d="M158.285,431.118c-0.962-2.765,3.126-7.336,6.012-6.614c1.684,0.241,1.443,1.082-1.563,4.569
				C159.607,432.801,159.126,433.042,158.285,431.118z"/>
			<path fill="#FFFFFF" d="M403.114,395.163c0-0.241,7.576-18.157,16.715-40.043l16.715-39.683l36.917-9.379
				c20.322-5.171,37.157-9.139,37.398-8.899c0.239,0.121-7.096,18.158-16.354,39.923l-16.716,39.562l-37.037,9.38
				C399.747,396.366,403.114,395.523,403.114,395.163z"/>
			<path fill="#FFFFFF" d="M32.744,366.543c0-0.601,0.601-1.202,1.202-1.202c0.722,0,1.203,0.601,1.203,1.202
				c0,0.722-0.48,1.203-1.203,1.203C33.345,367.746,32.744,367.266,32.744,366.543z"/>
			<path fill="#FFFFFF" d="M32.143,361.733c-1.563-2.525,5.29-8.898,7.455-6.854c0.721,0.842-4.57,8.057-5.772,8.057
				C33.345,362.936,32.624,362.455,32.143,361.733z"/>
			<g>
				<path fill="#FFFFFF" d="M579.882,349.949c0-0.481,7.455-18.398,16.594-39.923l16.474-38.96l37.038-9.26
					c20.321-5.05,36.916-8.777,36.916-8.297c0,0.481-7.095,17.557-15.751,37.999c-8.659,20.442-15.995,37.999-16.354,39.082
					c-0.481,1.563-9.5,4.329-37.157,11.183C577.717,351.753,579.882,351.272,579.882,349.949z"/>
			</g>
			<path fill="#FFFFFF" d="M210.112,291.868l-37.036-22.727l4.088-1.683c14.791-6.133,66.138-25.974,67.22-25.974
				c0.842,0,14.791,8.177,31.145,18.278c44.011,27.057,42.929,26.334,40.885,27.417c-0.962,0.602-14.069,5.892-29.341,11.784
				c-15.151,5.893-30.423,11.905-33.79,13.228l-6.253,2.525L210.112,291.868z"/>
			<g>
				<path fill="#FFFFFF" d="M755.446,306.899c0-1.082,32.828-78.162,33.67-79.004c1.082-1.202,72.031-19.12,73.354-18.639
					c1.321,0.481-31.748,78.163-33.791,79.366C826.635,289.825,755.446,307.501,755.446,306.899z"/>
			</g>
			<path fill="#FFFFFF" d="M379.424,225.972c-19.961-12.266-36.316-22.727-36.436-23.088c0-0.841,69.986-28.259,71.189-27.898
				c1.563,0.602,69.986,42.689,71.548,44.132c1.082,0.962-6.614,4.57-30.664,13.829c-17.677,6.975-33.669,13.227-35.714,14.069
				C415.86,248.338,414.417,247.616,379.424,225.972z"/>
			<path fill="#FFFFFF" d="M548.978,159.955c-19.721-12.146-36.195-22.487-36.677-22.968c-0.48-0.361,15.152-7.094,34.753-14.791
				l35.593-14.068l36.436,22.486c20.083,12.386,36.557,22.728,36.557,23.088c0,0.36-15.873,6.854-35.354,14.55l-35.353,13.949
				L548.978,159.955z"/>
			<path fill="#FFFFFF" d="M722.378,96.462c-16.475-10.221-32.709-20.323-35.955-22.367c-4.811-2.886-5.65-3.848-4.089-4.689
				c0.963-0.602,17.075-6.975,35.595-14.31l33.67-13.228l36.916,22.727c20.202,12.505,36.316,23.088,35.715,23.449
				c-2.285,1.442-69.145,27.176-70.347,27.176C753.041,115.101,738.972,106.684,722.378,96.462z"/>
		</g>
	</g>
</g>
<g id="Layer_2">
</g>
</svg>
